<svg width="236" height="43" viewBox="0 0 236 43" fill="none" xmlns="http://www.w3.org/2000/svg">
<path d="M68.3125 13.616H71.4805C74.4085 13.616 76.1845 11.456 76.1845 8.912C76.1845 6.368 74.4085 4.208 71.4805 4.208H55.7365C52.8085 4.208 51.0805 6.368 51.0805 8.912C51.0805 11.456 52.8085 13.616 55.7365 13.616H59.0005V33.536C59.0005 36.608 61.1125 38.192 63.6085 38.192C66.1525 38.192 68.3125 36.608 68.3125 33.536V13.616Z" fill="white"/>
<path d="M99.4461 38C102.374 38 104.102 35.84 104.102 33.296C104.102 30.752 102.374 28.64 99.4461 28.64H88.2621V25.376H97.5741C100.262 25.376 101.846 23.408 101.846 21.104C101.846 18.8 100.262 16.832 97.5741 16.832H88.2621V13.616H99.4461C102.374 13.616 104.102 11.456 104.102 8.912C104.102 6.368 102.374 4.208 99.4461 4.208H83.6061C80.5341 4.208 78.9981 5.792 78.9981 8.912V33.296C78.9981 36.416 80.5341 38 83.6061 38H99.4461Z" fill="white"/>
<path d="M128.321 38C131.249 38 132.977 35.84 132.977 33.296C132.977 30.752 131.249 28.64 128.321 28.64H117.137V25.376H126.449C129.137 25.376 130.721 23.408 130.721 21.104C130.721 18.8 129.137 16.832 126.449 16.832H117.137V13.616H128.321C131.249 13.616 132.977 11.456 132.977 8.912C132.977 6.368 131.249 4.208 128.321 4.208H112.481C109.409 4.208 107.873 5.792 107.873 8.912V33.296C107.873 36.416 109.409 38 112.481 38H128.321Z" fill="white"/>
<path d="M156.236 13.712C159.308 13.712 160.988 11.408 160.988 8.96C160.988 6.56 159.308 4.208 156.236 4.208H153.548C141.836 4.208 136.028 12.848 136.028 21.344C136.028 29.744 141.644 38 152.828 38H156.236C159.356 38 160.892 35.792 160.892 33.296C160.892 30.992 159.404 28.64 156.236 28.64H152.78C147.644 28.64 145.052 24.944 145.052 21.104C145.052 17.36 147.644 13.712 152.828 13.712H156.236Z" fill="white"/>
<path d="M163.594 21.104C163.594 30.656 171.274 38.336 180.826 38.336C190.378 38.336 198.106 30.656 198.106 21.104C198.106 11.552 190.378 3.872 180.826 3.872C171.274 3.872 163.594 11.552 163.594 21.104ZM173.05 21.248C173.05 16.88 176.554 13.376 180.874 13.376C185.194 13.376 188.746 16.88 188.746 21.248C188.746 25.616 185.194 29.024 180.874 29.024C176.554 29.024 173.05 25.616 173.05 21.248Z" fill="white"/>
<path d="M200.813 21.104C200.813 30.656 208.493 38.336 218.045 38.336C227.597 38.336 235.325 30.656 235.325 21.104C235.325 11.552 227.597 3.872 218.045 3.872C208.493 3.872 200.813 11.552 200.813 21.104ZM210.269 21.248C210.269 16.88 213.773 13.376 218.093 13.376C222.413 13.376 225.965 16.88 225.965 21.248C225.965 25.616 222.413 29.024 218.093 29.024C213.773 29.024 210.269 25.616 210.269 21.248Z" fill="white"/>
<path d="M40 20C40 31.0457 31.0457 42.169 20 42.169C8.9543 42.169 0 33.2147 0 22.169C0 11.1233 8.9543 0 20 0C31.0457 0 40 0 40 20Z" fill="#F4B000"/>
<path d="M29.7241 22.6517C29.7241 28.7078 24.8147 33.6172 18.7586 33.6172C12.7025 33.6172 7.79308 28.7078 7.79308 22.6517C7.79308 16.5956 12.7025 11.6862 18.7586 11.6862C24.8147 11.6862 29.7241 16.5956 29.7241 22.6517Z" fill="#0B0B11"/>
<path d="M20.9655 21.6518C18.7586 23.7207 16.5862 19.6863 15.8621 25.6518C13.4435 25.6518 12.2069 24.0704 12.2069 21.6518C12.2069 19.2331 14.1676 17.2725 16.5862 17.2725C19.0049 17.2725 20.9655 19.2331 20.9655 21.6518Z" fill="white"/>
</svg>
